<?xml version="1.0" standalone="no"?>
<!DOCTYPE svg PUBLIC "-//W3C//DTD SVG 20010904//EN"
 "http://www.w3.org/TR/2001/REC-SVG-20010904/DTD/svg10.dtd">
<svg version="1.0" xmlns="http://www.w3.org/2000/svg"
 width="242.000000pt" height="163.000000pt" viewBox="0 0 242.000000 163.000000"
 preserveAspectRatio="xMidYMid meet">
<metadata>
Created by potrace 1.10, written by Peter Selinger 2001-2011
</metadata>
<g transform="translate(0.000000,163.000000) scale(0.100000,-0.100000)"
fill="#000000" stroke="none">
<path d="M655 1526 c-254 -59 -441 -228 -522 -471 -23 -70 -27 -96 -27 -210 0
-121 2 -136 32 -224 79 -228 251 -387 486 -452 68 -18 98 -21 200 -17 104 4
133 9 206 37 136 51 252 139 335 256 55 77 59 94 6 27 -113 -142 -268 -209
-466 -199 -212 10 -389 125 -480 312 -86 177 -86 333 0 510 114 234 356 359
614 315 129 -22 270 -108 350 -215 18 -25 20 -26 10 -5 -40 85 -189 225 -294
278 -123 62 -323 87 -450 58z m251 -17 c83 -14 95 -19 88 -31 -5 -8 -1 -9 11
-5 11 5 31 -1 52 -13 19 -11 42 -20 51 -20 12 0 13 -3 5 -11 -14 -14 -67 -3
-58 11 3 5 0 8 -7 5 -7 -3 -65 -7 -128 -9 -123 -3 -164 -14 -272 -71 -89 -47
-172 -120 -203 -177 -6 -13 -21 -39 -31 -58 -50 -89 -69 -170 -68 -285 0 -103
3 -127 16 -165 3 -8 13 -35 22 -60 27 -76 157 -250 186 -250 6 0 10 -4 10 -8
0 -14 142 -81 205 -97 66 -17 171 -21 258 -10 36 5 57 4 57 -3 0 -13 -93 -52
-125 -52 -14 0 -24 -4 -21 -9 8 -12 -55 -21 -150 -21 -99 0 -175 10 -168 21 3
5 -6 10 -20 10 -14 1 -29 2 -33 4 -55 15 -178 82 -176 94 2 6 -1 10 -6 8 -13
-3 -101 73 -101 89 0 8 -7 14 -15 14 -9 0 -12 6 -8 17 4 9 2 14 -4 10 -5 -3
-17 3 -26 14 -9 10 -13 19 -9 19 4 0 0 5 -10 10 -9 6 -15 20 -14 34 2 17 -1
23 -10 19 -8 -3 -14 2 -14 11 0 10 -7 31 -16 48 -23 44 -44 133 -51 210 -6 66
13 221 26 214 3 -2 7 8 7 22 2 40 63 164 76 156 7 -4 8 -3 4 4 -7 11 61 110
76 111 4 1 21 15 36 31 16 17 35 30 41 30 7 0 10 4 7 8 -6 10 114 82 135 82 8
0 19 4 25 10 18 18 158 49 225 49 36 1 92 -4 125 -10z m234 -1239 c0 -5 -5
-10 -11 -10 -5 0 -7 5 -4 10 3 6 8 10 11 10 2 0 4 -4 4 -10z"/>
<path d="M820 1008 c-75 -38 -105 -104 -76 -168 4 -11 -4 -21 -30 -35 -42 -23
-84 -89 -84 -134 0 -45 46 -91 92 -91 36 0 107 40 146 82 l22 25 -20 18 c-20
18 -21 18 -63 -22 -46 -45 -102 -77 -117 -68 -35 22 25 130 94 170 l46 27 -26
20 c-30 25 -28 60 7 110 23 31 83 63 99 53 17 -11 11 -51 -14 -88 -24 -34 -24
-36 -6 -52 24 -22 38 -13 62 42 21 48 18 70 -15 101 -35 33 -67 35 -117 10z
m-50 -93 c0 -8 -4 -15 -10 -15 -5 0 -7 7 -4 15 4 8 8 15 10 15 2 0 4 -7 4 -15z"/>
<path d="M1643 913 c-21 -11 -38 -30 -47 -55 -11 -26 -22 -38 -35 -38 -11 0
-23 -4 -26 -10 -3 -5 3 -10 14 -10 12 0 21 -1 21 -2 0 -2 -8 -24 -18 -49 -23
-61 -92 -119 -141 -119 -31 0 -25 26 8 40 16 6 39 23 52 36 29 31 17 58 -30
62 -28 3 -40 -5 -95 -62 -35 -36 -65 -66 -67 -66 -2 0 -4 28 -4 61 0 44 -5 67
-17 81 -17 19 -17 19 -31 -14 -16 -36 -31 -52 -91 -98 -55 -42 -64 -41 -46 6
6 15 8 35 5 45 -6 16 -10 15 -41 -16 -18 -19 -43 -39 -54 -45 -37 -20 -22 15
25 59 25 23 45 44 45 46 0 3 -10 5 -23 5 -50 0 -139 -105 -123 -145 8 -22 28
-18 75 15 l42 31 -3 -28 c-5 -44 37 -43 89 2 23 19 45 35 49 35 4 0 18 10 32
22 l23 23 -3 -40 c-2 -33 -7 -41 -26 -43 -19 -3 -21 -6 -11 -18 17 -21 62 -17
102 10 35 24 36 24 42 5 15 -47 94 -44 155 7 27 23 30 24 30 7 0 -23 18 -43
40 -43 8 0 31 11 50 24 l35 23 10 -21 c14 -28 46 -31 87 -9 18 9 49 23 68 30
19 7 35 13 35 13 1 0 1 -12 0 -27 0 -41 30 -41 72 -1 l34 33 -6 -27 c-10 -41
26 -47 77 -11 22 15 49 33 59 39 11 6 29 19 41 30 21 19 21 19 14 -6 -18 -69
-19 -80 -1 -86 21 -8 74 18 106 52 30 32 16 30 -27 -2 -19 -15 -37 -24 -40
-22 -3 3 3 25 12 48 16 41 16 43 -2 53 -10 6 -29 21 -43 35 -23 23 -25 24 -38
6 -16 -22 -17 -36 -1 -52 8 -8 8 -15 -2 -27 -7 -8 -17 -15 -22 -15 -5 0 -25
-12 -44 -26 -19 -15 -37 -24 -40 -21 -3 3 1 28 11 56 9 28 14 55 10 61 -12 19
-30 10 -48 -22 -25 -46 -65 -93 -72 -86 -3 3 4 27 17 52 19 40 20 48 8 56 -25
16 -37 11 -44 -15 -7 -26 -53 -75 -72 -75 -6 0 -9 12 -6 29 8 56 -40 48 -53
-9 -3 -15 -15 -36 -26 -46 -18 -16 -19 -16 -19 7 0 27 45 99 62 99 7 0 6 5 -2
15 -11 13 -16 13 -42 -1 -16 -8 -38 -30 -48 -48 -18 -29 -70 -76 -86 -76 -10
0 5 66 26 115 16 37 23 44 51 47 18 2 34 9 37 15 2 9 -5 11 -27 7 -17 -4 -31
-4 -31 0 0 3 11 29 24 56 27 55 26 56 -21 33z m-28 -103 c-3 -5 -12 -10 -18
-10 -7 0 -6 4 3 10 19 12 23 12 15 0z m-165 -73 c0 -17 -38 -53 -46 -44 -8 8
23 57 36 57 6 0 10 -6 10 -13z m-70 -61 c0 -7 -7 -19 -15 -26 -13 -11 -15 -9
-11 11 3 13 5 25 5 27 3 9 21 -1 21 -12z m172 -18 c-7 -7 -12 -8 -12 -2 0 14
12 26 19 19 2 -3 -1 -11 -7 -17z"/>
</g>
</svg>
