 <svg class="output_svg_load"  version="1.0" xmlns="http://www.w3.org/2000/svg"  width="726.000000pt" height="489.000000pt" viewBox="0 0 726.000000 489.000000"  preserveAspectRatio="xMidYMid meet">  <g transform="translate(0.000000,489.000000) scale(0.100000,-0.100000)" fill="#33ff66" stroke="none"> <path d="M2115 4594 c-27 -7 -73 -14 -101 -14 -28 0 -59 -6 -70 -15 -10 -8 -35 -15 -54 -15 -19 0 -46 -7 -60 -15 -14 -8 -39 -14 -55 -15 -17 0 -39 -6 -50 -14 -11 -7 -31 -16 -45 -19 -41 -9 -110 -36 -195 -76 -44 -21 -87 -41 -95 -45 -8 -3 -28 -15 -45 -26 -16 -11 -39 -24 -50 -30 -11 -6 -29 -16 -40 -23 -26 -15 -178 -128 -185 -138 -3 -3 -34 -30 -70 -59 -101 -83 -230 -225 -303 -333 -15 -23 -32 -43 -37 -45 -6 -2 -10 -10 -10 -17 0 -7 -7 -15 -15 -19 -8 -3 -15 -13 -15 -22 0 -9 -12 -33 -27 -53 -33 -43 -51 -70 -59 -91 -4 -8 -25 -53 -47 -100 -22 -47 -44 -98 -48 -115 -4 -16 -17 -55 -29 -85 -12 -30 -25 -73 -29 -95 -4 -22 -13 -50 -19 -62 -7 -12 -12 -34 -12 -50 -1 -15 -7 -39 -15 -53 -8 -14 -14 -50 -15 -80 0 -30 -7 -77 -15 -104 -21 -70 -21 -422 0 -492 8 -27 15 -74 15 -104 1 -30 7 -66 15 -80 8 -14 15 -38 15 -55 0 -16 7 -41 15 -55 8 -14 15 -41 15 -60 0 -19 7 -44 15 -54 8 -11 15 -29 15 -40 0 -12 7 -30 15 -40 8 -11 15 -28 15 -38 0 -17 14 -50 80 -188 24 -51 29 -60 88 -148 23 -35 42 -66 42 -69 0 -3 17 -26 37 -51 21 -25 48 -62 61 -81 54 -79 227 -249 342 -336 36 -27 69 -55 73 -62 4 -7 15 -13 22 -13 8 0 15 -4 15 -10 0 -5 11 -12 25 -16 14 -3 25 -10 25 -15 0 -9 6 -12 182 -101 73 -38 139 -68 145 -68 13 0 69 -23 115 -46 14 -8 37 -14 50 -14 13 0 33 -7 44 -15 10 -8 35 -15 54 -15 19 0 46 -7 60 -15 14 -8 43 -15 65 -15 22 0 51 -7 65 -15 37 -21 657 -22 686 0 11 8 41 15 70 15 28 0 59 6 70 15 10 8 35 15 54 15 19 0 44 7 54 15 11 8 32 15 46 15 14 0 35 7 46 15 10 8 27 15 36 15 9 0 29 6 45 14 15 7 44 20 63 28 74 31 177 83 218 110 24 15 46 28 49 28 3 0 22 13 42 28 20 16 43 31 51 34 25 10 200 154 276 227 119 116 304 335 304 360 0 6 4 11 10 11 5 0 12 11 16 25 3 14 10 25 14 25 4 0 10 8 13 17 2 10 8 26 12 36 7 16 5 16 -19 6 -14 -7 -26 -18 -26 -25 0 -7 -6 -17 -12 -21 -7 -4 -24 -24 -38 -43 -66 -94 -181 -208 -305 -301 -55 -41 -107 -78 -115 -82 -8 -4 -28 -16 -45 -26 -43 -28 -109 -61 -122 -61 -6 0 -16 -6 -22 -14 -6 -8 -22 -16 -34 -19 -23 -6 -97 -31 -132 -46 -35 -15 -108 -32 -172 -41 -35 -5 -72 -14 -84 -20 -13 -8 -107 -11 -274 -11 -204 0 -262 3 -299 15 -26 9 -59 16 -75 16 -16 0 -45 7 -64 15 -20 8 -49 15 -65 15 -15 0 -32 4 -38 9 -5 5 -25 14 -44 19 -63 19 -110 38 -122 50 -7 7 -17 12 -24 12 -16 0 -119 56 -182 99 -29 20 -63 41 -75 48 -11 6 -33 23 -48 37 -15 14 -32 26 -39 26 -36 0 -352 353 -393 440 -4 8 -16 29 -27 45 -11 17 -24 40 -30 53 -34 78 -63 141 -75 165 -8 16 -15 37 -15 47 0 9 -7 23 -15 30 -8 7 -15 25 -15 39 0 15 -7 36 -15 47 -8 10 -15 35 -15 55 0 19 -7 44 -15 55 -8 10 -15 41 -15 69 0 28 -7 72 -15 99 -21 70 -21 379 0 429 8 20 15 62 15 94 1 35 6 66 15 77 8 11 15 36 15 55 0 20 7 45 15 55 8 11 15 29 15 41 0 12 7 30 15 41 8 10 15 27 15 36 0 9 7 29 15 45 8 15 37 75 65 133 55 114 57 117 113 199 73 108 334 381 364 381 2 0 31 20 63 45 32 25 61 45 64 45 3 0 25 14 49 30 25 17 49 30 55 30 5 0 15 7 22 15 7 8 20 15 30 15 10 0 23 7 30 15 7 8 20 15 30 15 10 0 23 6 29 14 6 8 24 16 39 19 15 3 58 17 96 31 38 14 80 26 93 26 14 0 39 6 56 14 18 8 62 17 99 20 38 3 77 10 87 16 32 17 388 13 447 -5 27 -8 63 -15 80 -15 41 0 233 -51 299 -79 110 -47 171 -77 210 -102 17 -10 37 -22 45 -26 8 -3 31 -19 51 -35 20 -15 40 -28 44 -28 30 0 242 -197 310 -287 21 -29 43 -53 47 -53 4 0 8 -4 8 -9 0 -6 14 -25 30 -43 l30 -32 0 32 c0 17 -3 32 -8 32 -4 0 -18 20 -32 45 -14 25 -28 45 -32 45 -5 0 -8 7 -8 15 0 7 -6 18 -12 22 -7 4 -24 24 -38 43 -56 80 -263 295 -345 358 -33 26 -64 50 -70 54 -40 32 -145 108 -149 108 -3 0 -34 20 -70 45 -37 25 -70 45 -74 45 -4 0 -36 14 -72 32 -36 17 -74 35 -85 39 -11 4 -42 17 -69 28 -27 12 -56 21 -65 21 -9 0 -25 6 -36 14 -11 7 -36 16 -55 18 -19 3 -48 10 -65 16 -57 20 -120 34 -190 42 -38 5 -88 13 -110 19 -60 16 -429 12 -490 -5z m520 -104 c44 -12 96 -23 115 -25 90 -7 180 -35 180 -55 0 -6 17 -10 38 -10 21 0 47 -7 58 -15 32 -24 0 -35 -111 -36 -301 -2 -482 -16 -509 -39 -6 -5 -56 -18 -110 -29 -54 -11 -103 -26 -109 -34 -7 -8 -24 -17 -39 -21 -16 -3 -40 -9 -55 -12 -16 -4 -37 -14 -48 -23 -30 -24 -63 -41 -80 -41 -8 0 -34 -13 -57 -30 -22 -16 -46 -30 -53 -30 -6 0 -24 -13 -39 -29 -16 -16 -41 -35 -57 -41 -16 -7 -29 -16 -29 -21 0 -5 -19 -21 -41 -36 -23 -16 -49 -32 -57 -38 -30 -20 -199 -195 -253 -261 -31 -38 -80 -105 -110 -149 -30 -44 -60 -86 -66 -93 -7 -7 -13 -22 -13 -32 0 -10 -4 -21 -9 -24 -5 -3 -25 -48 -46 -98 -20 -51 -40 -97 -45 -103 -4 -5 -13 -40 -20 -78 -7 -37 -20 -77 -30 -90 -12 -15 -21 -56 -29 -131 -6 -60 -17 -122 -25 -137 -8 -16 -11 -31 -6 -34 9 -6 6 -146 -5 -187 -4 -14 -2 -35 4 -46 8 -15 7 -23 -4 -32 -15 -13 -21 -61 -8 -74 17 -16 34 -89 44 -186 7 -58 18 -115 26 -128 15 -25 43 -121 43 -149 0 -9 6 -24 14 -32 7 -9 21 -39 30 -68 10 -28 24 -57 32 -63 7 -7 14 -17 14 -23 0 -18 49 -113 65 -127 8 -7 15 -21 15 -32 0 -10 15 -34 33 -53 17 -19 46 -52 62 -75 77 -104 153 -189 230 -256 46 -41 89 -74 94 -74 5 0 16 -9 24 -20 12 -17 109 -81 214 -141 18 -10 41 -27 53 -39 11 -11 30 -20 42 -20 12 0 44 -13 72 -28 28 -15 78 -37 111 -47 33 -11 67 -24 75 -31 8 -6 42 -14 74 -18 33 -4 103 -17 155 -30 82 -20 125 -24 296 -25 154 -2 205 -6 223 -17 12 -8 22 -19 22 -24 0 -14 -68 -41 -115 -45 -22 -2 -83 -16 -135 -30 l-95 -26 -355 4 c-309 3 -360 6 -395 21 -22 9 -65 23 -95 31 -81 20 -210 68 -250 93 -19 12 -52 27 -72 32 -20 6 -40 15 -44 21 -3 6 -35 24 -69 39 -34 15 -66 33 -70 39 -3 6 -28 22 -55 36 -27 14 -53 31 -57 39 -4 7 -23 21 -40 30 -18 9 -33 21 -33 26 0 5 -21 23 -47 41 -58 39 -193 169 -193 186 0 7 -13 22 -29 34 -17 12 -35 35 -42 50 -6 16 -15 29 -19 29 -9 0 -108 132 -117 156 -3 11 -17 33 -29 49 -12 17 -31 50 -42 75 -11 25 -27 51 -36 59 -9 7 -16 20 -16 28 0 9 -9 32 -19 52 -35 66 -89 235 -96 299 -4 38 -13 65 -22 70 -8 5 -18 27 -23 49 -11 48 -31 333 -24 344 2 4 4 63 5 131 0 130 16 306 30 323 15 20 39 101 39 135 0 19 8 49 19 65 10 17 21 44 24 60 8 44 77 207 97 230 9 11 28 43 40 70 13 28 32 56 41 63 10 6 20 26 24 42 4 16 15 36 24 42 10 7 25 27 34 45 9 17 30 41 47 53 16 12 30 28 30 36 0 33 270 296 333 325 15 7 29 20 32 30 3 9 20 22 37 28 17 6 39 18 47 27 64 62 362 206 456 219 28 4 62 16 77 27 18 12 57 21 120 28 91 9 154 22 193 40 31 14 86 17 255 14 119 -2 174 -8 235 -24z"/> <path d="M2565 3060 c-11 -5 -34 -9 -51 -9 -17 -1 -37 -8 -44 -16 -7 -8 -20 -15 -30 -15 -10 0 -23 -7 -30 -15 -7 -8 -18 -15 -24 -15 -22 -1 -145 -136 -175 -194 -27 -51 -31 -69 -31 -138 0 -74 2 -83 31 -119 17 -21 29 -47 27 -56 -2 -10 -26 -29 -54 -43 -101 -50 -213 -159 -252 -245 -49 -106 -52 -117 -52 -191 0 -61 4 -81 23 -107 45 -65 82 -103 131 -136 48 -32 56 -34 139 -34 57 1 92 5 103 14 22 18 53 36 87 50 15 6 27 15 27 20 0 5 5 9 11 9 14 0 122 83 185 143 28 26 60 54 70 62 18 14 17 16 -16 45 -19 17 -47 42 -62 55 -26 24 -68 34 -68 16 0 -16 -182 -190 -235 -225 -120 -80 -191 -102 -225 -71 -16 14 -20 31 -20 79 1 38 6 68 15 80 8 11 15 28 15 38 0 10 4 18 9 18 5 0 13 10 17 23 8 27 61 97 117 156 43 46 140 121 155 121 5 0 15 7 22 15 7 8 22 15 34 15 11 1 31 9 44 20 24 20 22 40 -4 40 -26 0 -84 51 -105 91 -22 45 -24 106 -4 133 8 11 15 28 15 37 0 25 65 117 116 166 46 43 101 73 170 93 34 10 46 10 72 -4 31 -16 32 -19 32 -80 0 -44 -5 -67 -15 -76 -8 -7 -15 -23 -15 -36 0 -13 -3 -24 -8 -24 -4 0 -16 -17 -27 -37 -11 -20 -36 -51 -55 -70 l-35 -33 59 -55 c33 -30 67 -55 75 -55 28 0 120 151 147 239 31 102 11 160 -89 260 -61 61 -160 88 -222 61z"/> <path d="M4996 2765 c-11 -8 -27 -15 -37 -15 -9 0 -22 -7 -29 -15 -7 -8 -19 -15 -27 -15 -35 0 -81 -52 -113 -128 -62 -148 -57 -142 -121 -142 -46 0 -59 -4 -78 -24 -30 -31 -14 -42 57 -37 50 3 52 2 52 -22 0 -14 -7 -27 -15 -31 -9 -3 -15 -18 -15 -34 0 -16 -7 -35 -15 -42 -8 -7 -15 -22 -15 -34 0 -11 -7 -30 -15 -40 -8 -11 -15 -30 -15 -42 0 -34 -32 -84 -55 -84 -11 0 -40 -20 -64 -44 -84 -85 -243 -157 -308 -141 -41 10 -41 104 1 105 6 0 34 12 61 25 28 14 54 25 58 25 11 0 117 82 142 109 32 37 25 83 -20 127 -39 38 -42 39 -111 39 -54 0 -77 -4 -91 -17 -11 -10 -26 -18 -35 -18 -22 0 -130 -109 -155 -156 -24 -47 -69 -95 -139 -148 -70 -54 -110 -46 -78 16 13 25 15 43 8 87 -4 31 -8 93 -8 138 l-1 83 -42 41 c-33 34 -46 40 -66 35 -18 -4 -26 -14 -30 -38 -6 -42 -27 -96 -49 -127 -38 -54 -111 -120 -143 -131 -19 -6 -53 -29 -76 -51 -104 -99 -159 -130 -172 -96 -3 7 1 24 9 38 7 13 13 35 14 48 0 14 6 32 14 40 27 31 24 86 -7 125 l-23 29 -42 -53 c-23 -28 -72 -75 -109 -103 -37 -28 -70 -55 -71 -59 -2 -5 -22 -18 -43 -29 l-39 -20 -9 23 c-5 13 -6 30 -3 38 7 19 60 89 87 115 71 67 124 110 153 122 33 14 39 27 22 53 -6 10 -25 15 -57 15 -38 0 -58 -7 -96 -32 -26 -18 -50 -33 -53 -33 -6 0 -48 -37 -92 -82 -58 -58 -82 -87 -82 -101 0 -8 -7 -20 -15 -27 -8 -7 -15 -20 -15 -30 0 -10 -7 -23 -15 -30 -10 -8 -15 -30 -15 -63 0 -40 5 -54 26 -73 28 -27 42 -29 76 -14 51 24 168 103 197 134 14 14 33 26 44 26 20 0 20 -15 3 -90 -4 -17 0 -33 13 -50 17 -21 28 -25 73 -24 47 1 62 7 128 52 41 29 100 75 130 103 30 28 68 53 83 56 18 4 48 28 80 64 28 33 57 59 64 59 10 0 13 -24 13 -91 0 -77 -3 -96 -21 -121 -20 -28 -25 -29 -77 -26 -45 2 -57 0 -60 -13 -3 -18 61 -64 116 -83 38 -14 114 -4 141 17 16 13 48 33 76 45 11 6 41 28 67 51 25 23 49 41 52 41 3 0 6 -11 6 -23 0 -33 51 -101 100 -133 42 -28 68 -29 160 -4 94 25 207 92 266 157 12 13 29 23 39 23 15 0 16 -6 10 -46 -6 -44 -5 -48 25 -76 56 -51 77 -61 114 -54 19 4 39 13 46 21 7 8 17 15 22 15 11 0 118 81 137 104 23 27 41 19 41 -17 0 -25 10 -44 41 -77 39 -42 45 -44 94 -44 60 0 102 18 187 82 41 30 66 42 91 42 35 0 121 33 132 50 3 6 15 10 27 10 17 0 19 -4 13 -22 -4 -13 -10 -42 -12 -66 -4 -36 -1 -47 20 -68 14 -14 42 -28 61 -31 36 -6 40 -3 132 91 52 53 99 96 105 96 14 0 10 -53 -6 -74 -8 -11 -15 -25 -15 -32 0 -23 66 -84 91 -84 44 0 175 81 264 162 29 26 67 51 83 54 21 4 48 25 82 65 28 33 58 59 65 59 23 0 30 -49 12 -84 -25 -48 -57 -147 -57 -176 0 -41 43 -75 93 -75 48 0 134 52 260 157 78 66 90 91 44 96 -21 3 -36 -4 -55 -25 -36 -38 -162 -143 -172 -143 -4 0 -13 6 -19 14 -12 15 -10 22 45 143 8 17 14 36 14 42 0 7 7 23 16 36 9 13 13 33 10 43 -5 16 -85 76 -121 91 -36 15 -74 56 -79 85 -6 33 -32 51 -53 37 -5 -3 -26 -34 -47 -69 -44 -73 -43 -99 6 -123 17 -8 34 -21 36 -27 6 -18 -88 -102 -113 -102 -12 0 -34 -11 -49 -25 -75 -69 -167 -136 -183 -133 -25 5 -22 58 6 128 13 30 25 64 28 75 3 11 14 39 25 62 24 53 18 73 -32 108 -45 31 -73 30 -80 -5 -6 -24 -27 -71 -53 -115 -33 -57 -143 -195 -164 -206 -20 -11 -26 -10 -39 3 -13 13 -12 21 15 74 16 32 39 80 51 106 12 27 26 50 31 54 5 3 9 20 9 37 0 29 -6 34 -51 55 -65 30 -99 24 -99 -16 0 -16 -7 -37 -15 -48 -8 -10 -15 -28 -15 -39 0 -11 -7 -29 -15 -39 -8 -11 -15 -28 -15 -37 0 -11 -14 -25 -35 -34 -19 -9 -39 -23 -46 -31 -6 -8 -17 -14 -24 -14 -7 0 -18 -7 -25 -15 -15 -19 -80 -20 -80 -2 0 7 6 21 14 32 25 38 28 89 6 118 -11 14 -20 30 -20 35 0 6 -10 14 -21 17 -16 5 -27 0 -45 -21 -13 -16 -23 -34 -24 -40 0 -6 -7 -17 -15 -24 -8 -7 -15 -23 -15 -36 0 -12 -4 -26 -10 -29 -5 -3 -10 -22 -10 -41 0 -25 -9 -44 -37 -74 -49 -55 -71 -66 -90 -47 -19 18 -9 109 13 128 8 6 14 19 14 29 0 10 7 23 15 30 8 7 15 19 15 26 0 8 29 44 65 80 36 37 65 73 65 80 0 25 -51 43 -85 30 -75 -28 -195 -121 -195 -151 0 -7 -7 -18 -15 -25 -8 -7 -15 -20 -15 -30 0 -20 -46 -67 -139 -140 -92 -72 -124 -65 -102 22 17 70 38 139 61 198 12 30 24 67 27 82 3 15 11 33 19 39 8 6 14 20 14 31 0 11 5 28 10 39 9 17 22 19 100 19 95 0 119 10 134 58 10 30 -4 33 -79 17 -74 -15 -105 -8 -105 24 0 10 7 24 15 31 8 7 15 18 15 24 0 13 58 129 84 168 30 46 11 82 -28 53z m-656 -540 c12 -31 1 -60 -37 -100 -67 -72 -123 -97 -123 -55 0 18 49 98 89 144 13 15 40 31 59 35 1 1 7 -10 12 -24z"/> </g> </svg> 